<?xml version="1.0" encoding="utf-8"?>
<!-- Generator: Adobe Illustrator 25.4.1, SVG Export Plug-In . SVG Version: 6.00 Build 0)  -->
<svg version="1.1" id="Layer_1" xmlns="http://www.w3.org/2000/svg" xmlns:xlink="http://www.w3.org/1999/xlink" x="0px" y="0px"
	 viewBox="0 0 192 192" style="enable-background:new 0 0 192 192;" xml:space="preserve">
<style type="text/css">
	.st0{fill:#3B9136;}
</style>
<g>
	<g>
		<path class="st0" d="M42.4,153.5c-0.5,0-1.1-0.1-1.6-0.3C18.3,143.1,3.8,120.6,3.8,96c0-24.5,14.5-46.9,36.8-57.1
			c7.9-3.7,16.7-5.7,26-5.7c11.3,0,22.1,2.9,31.4,8.4c11.1,6.4,20.3,16.5,25.7,28.4c3.8,8.4,5.7,17.1,5.7,26
			c0,8.6-1.9,17.5-5.4,25.7c-0.9,2-3.2,2.9-5.2,2c-2-0.9-2.9-3.2-2-5.2c3.1-7.2,4.8-15,4.8-22.6c0-7.7-1.7-15.4-5-22.7
			C111.8,62.8,103.8,54,94,48.4c-8.2-4.9-17.5-7.3-27.5-7.3c-8.1,0-15.8,1.7-22.7,4.9c-19.6,9-32.3,28.6-32.3,50
			c0,21.6,12.7,41.2,32.4,50c2,0.9,2.9,3.2,2,5.2C45.4,152.6,43.9,153.5,42.4,153.5z"/>
	</g>
	<g>
		<path class="st0" d="M125.4,158.8c-11.4,0-22-2.8-31.4-8.4c-11.6-6.9-20.6-16.8-25.9-28.7c-3.6-8.1-5.4-16.7-5.4-25.7
			c0-8.8,2-17.7,5.7-25.8c0.9-2,3.2-2.8,5.2-1.9c2,0.9,2.8,3.2,1.9,5.2c-3.2,7-4.9,14.8-4.9,22.5c0,7.9,1.6,15.5,4.8,22.5
			c4.6,10.4,12.5,19,22.8,25.1c8.2,4.8,17.4,7.3,27.4,7.3c8.2,0,15.7-1.7,22.4-4.9c19.8-8.8,32.5-28.4,32.5-50
			c0-21.5-12.7-41.1-32.2-50c-2-0.9-2.9-3.2-2-5.2c0.9-2,3.2-2.9,5.2-2C173.8,49,188.2,71.4,188.2,96c0,24.8-14.6,47.2-37.1,57.2
			C143.5,156.9,134.8,158.8,125.4,158.8z"/>
	</g>
	<g>
		<path class="st0" d="M96,129.4c-9.3,0-18.1-1.9-26-5.7c-2-0.9-2.8-3.3-1.9-5.2c0.9-2,3.3-2.8,5.2-1.9c6.9,3.3,14.5,4.9,22.7,4.9
			c7.7,0,15.4-1.7,22.7-5c19.6-8.8,32.2-28.5,32.2-50c0-7.6-1.7-15.2-5-22.5c-8.7-19.7-28.3-32.4-50-32.4c-21.7,0-41.3,12.7-50,32.4
			c-0.9,2-3.2,2.9-5.2,2c-2-0.9-2.9-3.2-2-5.2C48.8,18.3,71.2,3.8,96,3.8c24.8,0,47.2,14.6,57.2,37.1c3.7,8.4,5.6,17,5.6,25.7
			c0,24.6-14.5,47-36.8,57.1C113.6,127.5,104.8,129.4,96,129.4z"/>
	</g>
	<g>
		<path class="st0" d="M96,188.2c-24.6,0-47-14.5-57.2-36.8c-3.7-8.4-5.6-17.1-5.6-25.9c0-10.9,2.9-21.7,8.4-31.4
			c6.5-11.3,16.6-20.6,28.5-26c8.6-3.6,17.3-5.5,26-5.5c9.1,0,18,1.9,25.8,5.5c2,0.9,2.8,3.2,1.9,5.2c-0.9,2-3.2,2.8-5.2,1.9
			c-6.8-3.1-14.5-4.7-22.5-4.7c-7.6,0-15.3,1.6-22.8,4.8C62.9,80,54.1,88,48.4,98c-4.8,8.4-7.3,17.9-7.3,27.5c0,7.7,1.7,15.4,5,22.7
			c8.8,19.6,28.5,32.2,50,32.2c21.5,0,41.1-12.7,50-32.4c0.9-2,3.2-2.9,5.2-2c2,0.9,2.9,3.2,2,5.2C143,173.7,120.5,188.2,96,188.2z"
			/>
	</g>
</g>
</svg>
